<svg xmlns="http://www.w3.org/2000/svg" x="0px" y="0px" viewBox="0 0 20 16" style="enable-background:new 0 0 20 16;" width="20" height="16"><path fill="#c8daea" d="M8.1,15c-0.6,0-0.5-0.2-0.8-0.8L5.5,8.8l13.1-7.9"/><path fill="#a9c9dd" d="M8.1,15c0.5,0,0.7-0.2,1-0.4l2.6-2.3l-3.3-1.8"/><linearGradient id="gradient" gradientUnits="userSpaceOnUse" x1="-554.9991" y1="636.4849" x2="-554.9708" y2="636.4305" gradientTransform="matrix(130.4927 0 0 -109.4498 72435.3438 69670.5234)"><stop  offset="0" style="stop-color:#EFF7FC"/><stop  offset="1" style="stop-color:#FFFFFF"/></linearGradient><path fill="url(#gradient)" d="M7.8,10.6l7.4,5.2c0.8,0.4,1.4,0.2,1.7-0.7l3-13.6c0.3-1.2-0.5-1.7-1.3-1.4L0.9,6.6C-0.3,7.1-0.3,7.7,0.7,8l4.5,1.4L15.7,3c0.5-0.3,0.9-0.1,0.6,0.2"/></svg>
